<svg xmlns="http://www.w3.org/2000/svg" viewBox="0 0 512 512">
  <defs>
    <linearGradient id="g" x1="0" y1="0" x2="1" y2="1">
      <stop offset="0" stop-color="#14b8a6" />
      <stop offset="1" stop-color="#0f766e" />
    </linearGradient>
  </defs>
  <rect width="512" height="512" rx="120" fill="url(#g)" />
  <path
    fill="#ecfeff"
    d="M256 118c-72 0-130 58-130 130v68l-26 40c-5 8-5 18-1 26s13 13 22 13h270c9 0 18-5 22-13s4-18-1-26l-26-40v-68c0-72-58-130-130-130zm0 284c-22 0-41 15-47 36h94c-6-21-25-36-47-36z"
  />
</svg>
